<svg version="1.2" xmlns="http://www.w3.org/2000/svg" viewBox="0 0 512 513" width="512" height="512">
	<style>
		.s0 { fill: #f8f8f8 } 
		.s1 { fill: #000000 } 
	</style>
	<path id="Layer 1" class="s0" d=""/>
	<path id="Shape 1" fill-rule="evenodd" class="s0" d="m45 0h422c24.85 0 45 20.15 45 45v423c0 24.85-20.15 45-45 45h-422c-24.85 0-45-20.15-45-45v-423c0-24.85 20.15-45 45-45z"/>
	<path id="オ" class="s1" aria-label="オ"  d="m288 41.4h65.7q-1.7 11.4-2.6 24.6-0.6 13-0.3 24.8 0.4 19.1 0.8 43.8 0.4 24.7 1 53.3 0.8 28.4 1 58.9 1 29.9 1 60.4 1 30 1.1 58.9 0.8 28.6 1.1 54 0.4 23.5-13.4 36.6-13.4 12.3-41 12.3-22 0-44-0.5-21.7-1.2-42.9-2.5l-5.1-59.8q17.7 2.9 36.7 4.9 19.2 1.1 32.7 1.1 9.9 0 13.9-4.7 4.2-5.6 4.2-16.3 0-18-0.6-41.5 0.4-23.7 0-50.7-0.1-27.5-0.5-55.8-0.3-28.5-1-55.8-0.5-28.1-1.6-52.8-0.1-24.7-1.3-43.8-0.8-16.3-2.3-27.8-0.9-12.2-2.6-21.6zm-221.6 147.6v-61.1q11 1.3 26.1 2.6 15.2 0.8 27.9 0.8 7.1 0 25.4 0.3 18.3-0.3 43.5 0 26-0.3 54.8 0 29-0.3 57.3 0 29.2-0.3 53.8 0 25-0.3 41.9 0 17.6-0.3 22.9-0.3 11.8 0 26.8-1.3 15.1-1.3 23.6-2.5v60.8q-11.3-0.5-24.6-0.4-12.8-0.8-22.9-0.8-4.6 0-22.2 0.3-16.7-0.3-42.5 0-24.9-0.3-54.2 0-29.4-0.3-59.4 0-29.3-0.3-55.3 0-25.9-0.3-44.1 0-17.7-0.3-23.5-0.3-13.5 0-28.2 0.8-14 0.1-27.1 1.1zm17.1 228.9l-42-47.7q40.3-19.1 76.6-43.1 36.7-24.4 67.1-50.1 31-26.7 54.2-52.3 23.6-26.4 37.6-49.1l29.6 0.2 0.5 49q-15 23.2-39.5 49.6-23.6 25.8-53.8 52.2-29.4 26.1-62.9 49.7-33.5 23.5-67.4 41.6z"/>
</svg>